<svg xmlns="http://www.w3.org/2000/svg" width="34" height="34" viewBox="0 0 34 34" fill="none">
  <path d="M23.6673 13.6706C23.6673 15.4387 22.9649 17.1344 21.7147 18.3846C20.4645 19.6349 18.7688 20.3372 17.0007 20.3372C15.2325 20.3372 13.5368 19.6349 12.2866 18.3846C11.0364 17.1344 10.334 15.4387 10.334 13.6706C10.334 11.9025 11.0364 10.2068 12.2866 8.95653C13.5368 7.70628 15.2325 7.00391 17.0007 7.00391C18.7688 7.00391 20.4645 7.70628 21.7147 8.95653C22.9649 10.2068 23.6673 11.9025 23.6673 13.6706Z" fill="#1AA05B"/>
  <path fill-rule="evenodd" clip-rule="evenodd" d="M16.3207 33.6559C7.43148 33.2993 0.333984 25.9793 0.333984 17.0026C0.333984 7.7976 7.79565 0.335938 17.0007 0.335938C26.2057 0.335938 33.6673 7.7976 33.6673 17.0026C33.6673 26.2076 26.2057 33.6693 17.0007 33.6693C16.9245 33.6698 16.8484 33.6698 16.7723 33.6693C16.6215 33.6693 16.4707 33.6643 16.3207 33.6559ZM6.30565 27.5193C6.18104 27.1614 6.13862 26.7801 6.18155 26.4036C6.22448 26.0271 6.35166 25.6651 6.55363 25.3445C6.75561 25.0239 7.0272 24.7529 7.34825 24.5516C7.6693 24.3503 8.03157 24.2239 8.40815 24.1818C14.9048 23.4626 19.1365 23.5276 25.6015 24.1968C25.9786 24.236 26.3417 24.3608 26.6633 24.5617C26.9849 24.7625 27.2564 25.0341 27.4571 25.3557C27.6579 25.6773 27.7826 26.0405 27.8217 26.4176C27.8609 26.7947 27.8135 27.1758 27.6832 27.5318C30.4539 24.7283 32.0056 20.9442 32.0007 17.0026C32.0007 8.71844 25.2848 2.0026 17.0007 2.0026C8.71648 2.0026 2.00065 8.71844 2.00065 17.0026C2.00065 21.0993 3.64315 24.8126 6.30565 27.5193Z" fill="#1AA05B"/>
</svg>