<svg xmlns="http://www.w3.org/2000/svg" width="24" height="25" viewBox="0 0 24 25" fill="none">
  <path d="M5 19.5H6.4L15.025 10.875L13.625 9.475L5 18.1V19.5ZM19.3 9.425L15.05 5.225L16.45 3.825C16.8333 3.44167 17.3043 3.25 17.863 3.25C18.4217 3.25 18.8923 3.44167 19.275 3.825L20.675 5.225C21.0583 5.60833 21.2583 6.071 21.275 6.613C21.2917 7.155 21.1083 7.61733 20.725 8L19.3 9.425ZM17.85 10.9L7.25 21.5H3V17.25L13.6 6.65L17.85 10.9ZM14.325 10.175L13.625 9.475L15.025 10.875L14.325 10.175Z" fill="#1AA05B"/>
</svg>