<svg width="18" height="14" viewBox="0 0 18 14" fill="none" xmlns="http://www.w3.org/2000/svg">
<path d="M1.125 2.50002H1.20487C1.32765 2.92881 1.60766 3.30902 2.00065 3.58057C2.39365 3.85213 2.87723 3.99955 3.375 3.99955C3.87277 3.99955 4.35635 3.85213 4.74935 3.58057C5.14234 3.30902 5.42235 2.92881 5.54513 2.50002H16.875C17.0242 2.50002 17.1673 2.44734 17.2727 2.35357C17.3782 2.25981 17.4375 2.13263 17.4375 2.00002C17.4375 1.86741 17.3782 1.74024 17.2727 1.64647C17.1673 1.5527 17.0242 1.50002 16.875 1.50002H5.54513C5.42235 1.07123 5.14234 0.691022 4.74935 0.419467C4.35635 0.147911 3.87277 0.000488281 3.375 0.000488281C2.87723 0.000488281 2.39365 0.147911 2.00065 0.419467C1.60766 0.691022 1.32765 1.07123 1.20487 1.50002H1.125C0.975816 1.50002 0.832742 1.5527 0.727252 1.64647C0.621763 1.74024 0.5625 1.86741 0.5625 2.00002C0.5625 2.13263 0.621763 2.25981 0.727252 2.35357C0.832742 2.44734 0.975816 2.50002 1.125 2.50002ZM3.375 1.00002C3.5975 1.00002 3.81501 1.05867 4.00002 1.16855C4.18502 1.27843 4.32922 1.43461 4.41436 1.61734C4.49951 1.80006 4.52179 2.00113 4.47838 2.19511C4.43498 2.38909 4.32783 2.56728 4.1705 2.70713C4.01316 2.84698 3.81271 2.94222 3.59448 2.98081C3.37625 3.01939 3.15005 2.99959 2.94448 2.9239C2.73891 2.84821 2.56321 2.72004 2.4396 2.55559C2.31598 2.39114 2.25 2.1978 2.25 2.00002C2.25 1.7348 2.36853 1.48045 2.5795 1.29291C2.79048 1.10538 3.07663 1.00002 3.375 1.00002ZM16.875 6.50002H16.7951C16.6723 6.07123 16.3923 5.69102 15.9993 5.41947C15.6064 5.14791 15.1228 5.00049 14.625 5.00049C14.1272 5.00049 13.6436 5.14791 13.2507 5.41947C12.8577 5.69102 12.5777 6.07123 12.4549 6.50002H1.125C0.975816 6.50002 0.832742 6.5527 0.727252 6.64647C0.621763 6.74024 0.5625 6.86741 0.5625 7.00002C0.5625 7.13263 0.621763 7.25981 0.727252 7.35358C0.832742 7.44734 0.975816 7.50002 1.125 7.50002H12.4549C12.5777 7.92881 12.8577 8.30902 13.2507 8.58058C13.6436 8.85213 14.1272 8.99955 14.625 8.99955C15.1228 8.99955 15.6064 8.85213 15.9993 8.58058C16.3923 8.30902 16.6723 7.92881 16.7951 7.50002H16.875C17.0242 7.50002 17.1673 7.44734 17.2727 7.35358C17.3782 7.25981 17.4375 7.13263 17.4375 7.00002C17.4375 6.86741 17.3782 6.74024 17.2727 6.64647C17.1673 6.5527 17.0242 6.50002 16.875 6.50002ZM14.625 8.00002C14.4025 8.00002 14.185 7.94137 14 7.83149C13.815 7.72161 13.6708 7.56543 13.5856 7.38271C13.5005 7.19998 13.4782 6.99891 13.5216 6.80493C13.565 6.61095 13.6722 6.43277 13.8295 6.29291C13.9868 6.15306 14.1873 6.05782 14.4055 6.01924C14.6238 5.98065 14.85 6.00045 15.0555 6.07614C15.2611 6.15183 15.4368 6.28 15.5604 6.44445C15.684 6.6089 15.75 6.80224 15.75 7.00002C15.75 7.26524 15.6315 7.51959 15.4205 7.70713C15.2095 7.89466 14.9234 8.00002 14.625 8.00002ZM16.875 11.5H11.1701C11.0473 11.0712 10.7673 10.691 10.3743 10.4195C9.98135 10.1479 9.49777 10.0005 9 10.0005C8.50223 10.0005 8.01865 10.1479 7.62565 10.4195C7.23266 10.691 6.95265 11.0712 6.82987 11.5H1.125C0.975816 11.5 0.832742 11.5527 0.727252 11.6465C0.621763 11.7402 0.5625 11.8674 0.5625 12C0.5625 12.1326 0.621763 12.2598 0.727252 12.3536C0.832742 12.4473 0.975816 12.5 1.125 12.5H6.82987C6.95265 12.9288 7.23266 13.309 7.62565 13.5806C8.01865 13.8521 8.50223 13.9996 9 13.9996C9.49777 13.9996 9.98135 13.8521 10.3743 13.5806C10.7673 13.309 11.0473 12.9288 11.1701 12.5H16.875C17.0242 12.5 17.1673 12.4473 17.2727 12.3536C17.3782 12.2598 17.4375 12.1326 17.4375 12C17.4375 11.8674 17.3782 11.7402 17.2727 11.6465C17.1673 11.5527 17.0242 11.5 16.875 11.5ZM9 13C8.7775 13 8.55999 12.9414 8.37498 12.8315C8.18998 12.7216 8.04578 12.5654 7.96064 12.3827C7.87549 12.2 7.85321 11.9989 7.89662 11.8049C7.94002 11.611 8.04717 11.4328 8.2045 11.2929C8.36184 11.1531 8.56229 11.0578 8.78052 11.0192C8.99875 10.9807 9.22495 11.0005 9.43052 11.0761C9.63609 11.1518 9.81179 11.28 9.9354 11.4445C10.059 11.6089 10.125 11.8022 10.125 12C10.125 12.2652 10.0065 12.5196 9.7955 12.7071C9.58452 12.8947 9.29837 13 9 13Z" fill="white"/>
</svg>
