<svg width="24" height="23" viewBox="0 0 24 23" fill="none" xmlns="http://www.w3.org/2000/svg">
<path d="M12.0012 2.28381C14.7417 -0.17669 18.9767 -0.0950233 21.6169 2.54981C24.2559 5.19581 24.3469 9.40981 21.8922 12.1585L11.9989 22.0658L2.10788 12.1585C-0.346786 9.40981 -0.254619 5.18881 2.38321 2.54981C5.02571 -0.0915233 9.25255 -0.18019 12.0012 2.28381ZM19.9649 4.19831C18.2149 2.44598 15.3915 2.37481 13.5599 4.01981L12.0024 5.41748L10.4437 4.02098C8.60621 2.37364 5.78871 2.44598 4.03405 4.20064C2.29571 5.93898 2.20821 8.72148 3.81005 10.5601L12 18.763L20.19 10.5613C21.793 8.72148 21.7055 5.94248 19.9649 4.19831Z" fill="black"/>
</svg>
