<svg xmlns="http://www.w3.org/2000/svg" width="120" height="120" viewBox="0 0 120 120" fill="none">
  <mask id="mask0_4344_22887" style="mask-type:luminance" maskUnits="userSpaceOnUse" x="5" y="5" width="110" height="110">
    <path d="M60 110C66.5674 110.009 73.0717 108.719 79.1391 106.206C85.2065 103.693 90.7174 100.005 95.355 95.355C100.005 90.7174 103.693 85.2065 106.206 79.1391C108.719 73.0717 110.009 66.5674 110 60C110.008 53.4327 108.719 46.9285 106.206 40.8611C103.692 34.7937 100.005 29.2828 95.355 24.645C90.7174 19.9951 85.2065 16.3075 79.1391 13.7943C73.0717 11.281 66.5674 9.99153 60 10C53.4327 9.99167 46.9285 11.2812 40.8611 13.7944C34.7937 16.3077 29.2828 19.9952 24.645 24.645C19.9952 29.2828 16.3077 34.7937 13.7944 40.8611C11.2812 46.9285 9.99167 53.4327 10 60C9.99153 66.5674 11.281 73.0717 13.7943 79.1391C16.3075 85.2065 19.9951 90.7174 24.645 95.355C29.2828 100.005 34.7937 103.692 40.8611 106.206C46.9285 108.719 53.4327 110.008 60 110Z" fill="white" stroke="white" stroke-width="10" stroke-linejoin="round"/>
    <path d="M40 60L55 75L85 45" stroke="black" stroke-width="10" stroke-linecap="round" stroke-linejoin="round"/>
  </mask>
  <g mask="url(#mask0_4344_22887)">
    <path d="M0 0H120V120H0V0Z" fill="#1AA05B"/>
  </g>
</svg>