<svg width="24" height="24" viewBox="0 0 24 24" fill="none" xmlns="http://www.w3.org/2000/svg">
<path d="M12 0.333336C18.44 0.333336 23.6667 5.56 23.6667 12C23.6667 18.44 18.44 23.6667 12 23.6667C5.56001 23.6667 0.333344 18.44 0.333344 12C0.333344 5.56 5.56001 0.333336 12 0.333336ZM12 21.3333C17.1567 21.3333 21.3333 17.1567 21.3333 12C21.3333 6.84334 17.1567 2.66667 12 2.66667C6.84334 2.66667 2.66668 6.84334 2.66668 12C2.66668 17.1567 6.84334 21.3333 12 21.3333ZM13.1667 12H16.6667L12 16.6667L7.33334 12H10.8333V7.33334H13.1667V12Z" fill="black"/>
</svg>
