<svg width="18" height="16" viewBox="0 0 18 16" fill="none" xmlns="http://www.w3.org/2000/svg">
<path d="M1.125 3.50002H1.20487C1.32765 3.92881 1.60766 4.30902 2.00065 4.58057C2.39365 4.85213 2.87723 4.99955 3.375 4.99955C3.87277 4.99955 4.35635 4.85213 4.74935 4.58057C5.14234 4.30902 5.42235 3.92881 5.54513 3.50002H16.875C17.0242 3.50002 17.1673 3.44734 17.2727 3.35357C17.3782 3.25981 17.4375 3.13263 17.4375 3.00002C17.4375 2.86741 17.3782 2.74024 17.2727 2.64647C17.1673 2.5527 17.0242 2.50002 16.875 2.50002H5.54513C5.42235 2.07123 5.14234 1.69102 4.74935 1.41947C4.35635 1.14791 3.87277 1.00049 3.375 1.00049C2.87723 1.00049 2.39365 1.14791 2.00065 1.41947C1.60766 1.69102 1.32765 2.07123 1.20487 2.50002H1.125C0.975816 2.50002 0.832742 2.5527 0.727252 2.64647C0.621763 2.74024 0.5625 2.86741 0.5625 3.00002C0.5625 3.13263 0.621763 3.25981 0.727252 3.35357C0.832742 3.44734 0.975816 3.50002 1.125 3.50002ZM3.375 2.00002C3.5975 2.00002 3.81501 2.05867 4.00002 2.16855C4.18502 2.27843 4.32922 2.43461 4.41436 2.61734C4.49951 2.80006 4.52179 3.00113 4.47838 3.19511C4.43498 3.38909 4.32783 3.56728 4.1705 3.70713C4.01316 3.84698 3.81271 3.94222 3.59448 3.98081C3.37625 4.01939 3.15005 3.99959 2.94448 3.9239C2.73891 3.84821 2.56321 3.72004 2.4396 3.55559C2.31598 3.39114 2.25 3.1978 2.25 3.00002C2.25 2.7348 2.36853 2.48045 2.5795 2.29291C2.79048 2.10538 3.07663 2.00002 3.375 2.00002ZM16.875 7.50002H16.7951C16.6723 7.07123 16.3923 6.69102 15.9993 6.41947C15.6064 6.14791 15.1228 6.00049 14.625 6.00049C14.1272 6.00049 13.6436 6.14791 13.2507 6.41947C12.8577 6.69102 12.5777 7.07123 12.4549 7.50002H1.125C0.975816 7.50002 0.832742 7.5527 0.727252 7.64647C0.621763 7.74024 0.5625 7.86741 0.5625 8.00002C0.5625 8.13263 0.621763 8.25981 0.727252 8.35358C0.832742 8.44734 0.975816 8.50002 1.125 8.50002H12.4549C12.5777 8.92881 12.8577 9.30902 13.2507 9.58058C13.6436 9.85213 14.1272 9.99955 14.625 9.99955C15.1228 9.99955 15.6064 9.85213 15.9993 9.58058C16.3923 9.30902 16.6723 8.92881 16.7951 8.50002H16.875C17.0242 8.50002 17.1673 8.44734 17.2727 8.35358C17.3782 8.25981 17.4375 8.13263 17.4375 8.00002C17.4375 7.86741 17.3782 7.74024 17.2727 7.64647C17.1673 7.5527 17.0242 7.50002 16.875 7.50002ZM14.625 9.00002C14.4025 9.00002 14.185 8.94137 14 8.83149C13.815 8.72161 13.6708 8.56543 13.5856 8.38271C13.5005 8.19998 13.4782 7.99891 13.5216 7.80493C13.565 7.61095 13.6722 7.43277 13.8295 7.29291C13.9868 7.15306 14.1873 7.05782 14.4055 7.01924C14.6238 6.98065 14.85 7.00045 15.0555 7.07614C15.2611 7.15183 15.4368 7.28 15.5604 7.44445C15.684 7.6089 15.75 7.80224 15.75 8.00002C15.75 8.26524 15.6315 8.51959 15.4205 8.70713C15.2095 8.89466 14.9234 9.00002 14.625 9.00002ZM16.875 12.5H11.1701C11.0473 12.0712 10.7673 11.691 10.3743 11.4195C9.98135 11.1479 9.49777 11.0005 9 11.0005C8.50223 11.0005 8.01865 11.1479 7.62565 11.4195C7.23266 11.691 6.95265 12.0712 6.82987 12.5H1.125C0.975816 12.5 0.832742 12.5527 0.727252 12.6465C0.621763 12.7402 0.5625 12.8674 0.5625 13C0.5625 13.1326 0.621763 13.2598 0.727252 13.3536C0.832742 13.4473 0.975816 13.5 1.125 13.5H6.82987C6.95265 13.9288 7.23266 14.309 7.62565 14.5806C8.01865 14.8521 8.50223 14.9996 9 14.9996C9.49777 14.9996 9.98135 14.8521 10.3743 14.5806C10.7673 14.309 11.0473 13.9288 11.1701 13.5H16.875C17.0242 13.5 17.1673 13.4473 17.2727 13.3536C17.3782 13.2598 17.4375 13.1326 17.4375 13C17.4375 12.8674 17.3782 12.7402 17.2727 12.6465C17.1673 12.5527 17.0242 12.5 16.875 12.5ZM9 14C8.7775 14 8.55999 13.9414 8.37498 13.8315C8.18998 13.7216 8.04578 13.5654 7.96064 13.3827C7.87549 13.2 7.85321 12.9989 7.89662 12.8049C7.94002 12.611 8.04717 12.4328 8.2045 12.2929C8.36184 12.1531 8.56229 12.0578 8.78052 12.0192C8.99875 11.9807 9.22495 12.0005 9.43052 12.0761C9.63609 12.1518 9.81179 12.28 9.9354 12.4445C10.059 12.6089 10.125 12.8022 10.125 13C10.125 13.2652 10.0065 13.5196 9.7955 13.7071C9.58452 13.8947 9.29837 14 9 14Z" fill="#1AA05B"/>
</svg>
