<svg width="80" height="80" viewBox="0 0 80 80" fill="none" xmlns="http://www.w3.org/2000/svg">
<circle cx="40" cy="40" r="40" fill="#827397"/>
<path d="M34.9263 47.5C34.555 45.9088 32.88 44.6075 32.1925 43.75C31.0152 42.2791 30.2774 40.5056 30.0641 38.6337C29.8507 36.7618 30.1705 34.8678 30.9866 33.1697C31.8026 31.4716 33.0818 30.0386 34.6767 29.0357C36.2716 28.0329 38.1174 27.501 40.0014 27.5013C41.8854 27.5016 43.7309 28.0341 45.3255 29.0374C46.9201 30.0408 48.1988 31.4742 49.0143 33.1726C49.8299 34.8709 50.149 36.7651 49.9351 38.6369C49.7211 40.5087 48.9827 42.282 47.805 43.7525C47.1175 44.6088 45.445 45.91 45.0738 47.5H34.925H34.9263ZM45 50V51.25C45 51.913 44.7366 52.5489 44.2678 53.0178C43.7989 53.4866 43.1631 53.75 42.5 53.75H37.5C36.837 53.75 36.2011 53.4866 35.7322 53.0178C35.2634 52.5489 35 51.913 35 51.25V50H45ZM41.25 37.5063V32.5L35.625 40.0063H38.75V45.0063L44.375 37.5063H41.25Z" fill="black"/>
</svg>
