<svg width="80" height="80" viewBox="0 0 80 80" fill="none" xmlns="http://www.w3.org/2000/svg">
<circle cx="40" cy="40" r="40" fill="#FFCC8F"/>
<path d="M51.25 50H53.75V52.5H26.25V50H28.75V28.75C28.75 28.4185 28.8817 28.1005 29.1161 27.8661C29.3505 27.6317 29.6685 27.5 30 27.5H50C50.3315 27.5 50.6495 27.6317 50.8839 27.8661C51.1183 28.1005 51.25 28.4185 51.25 28.75V50ZM35 38.75V41.25H38.75V38.75H35ZM35 33.75V36.25H38.75V33.75H35ZM35 43.75V46.25H38.75V43.75H35ZM41.25 43.75V46.25H45V43.75H41.25ZM41.25 38.75V41.25H45V38.75H41.25ZM41.25 33.75V36.25H45V33.75H41.25Z" fill="black"/>
</svg>
