<svg width="24" height="23" viewBox="0 0 24 23" fill="none" xmlns="http://www.w3.org/2000/svg">
<path d="M12.0012 2.28383C14.7417 -0.176667 18.9767 -0.0950004 21.6168 2.54983C24.2558 5.19583 24.3468 9.40983 21.8922 12.1585L11.9988 22.0658L2.10785 12.1585C-0.346816 9.40983 -0.254649 5.18883 2.38318 2.54983C5.02568 -0.0915004 9.25252 -0.180167 12.0012 2.28383ZM19.9648 4.19833C18.2148 2.446 15.3915 2.37483 13.5598 4.01983L12.0023 5.4175L10.4437 4.021C8.60618 2.37367 5.78868 2.446 4.03402 4.20067C2.29568 5.939 2.20818 8.7215 3.81002 10.5602L12 18.763L20.19 10.5613C21.793 8.7215 21.7055 5.9425 19.9648 4.19833Z" fill="black"/>
</svg>
