<svg width="110" height="110" viewBox="0 0 110 110" fill="none" xmlns="http://www.w3.org/2000/svg">
<path d="M91.6666 96.25H18.3333C14.6865 96.25 11.1892 94.8013 8.61053 92.2227C6.03191 89.6441 4.58325 86.1467 4.58325 82.5V27.5C4.58325 23.8533 6.03191 20.3559 8.61053 17.7773C11.1892 15.1987 14.6865 13.75 18.3333 13.75H91.6666C95.3133 13.75 98.8107 15.1987 101.389 17.7773C103.968 20.3559 105.417 23.8533 105.417 27.5V82.5C105.417 86.1467 103.968 89.6441 101.389 92.2227C98.8107 94.8013 95.3133 96.25 91.6666 96.25ZM18.3333 22.9167C17.1177 22.9167 15.9519 23.3996 15.0923 24.2591C14.2328 25.1186 13.7499 26.2844 13.7499 27.5V82.5C13.7499 83.7156 14.2328 84.8814 15.0923 85.7409C15.9519 86.6005 17.1177 87.0833 18.3333 87.0833H91.6666C92.8822 87.0833 94.048 86.6005 94.9075 85.7409C95.767 84.8814 96.2499 83.7156 96.2499 82.5V27.5C96.2499 26.2844 95.767 25.1186 94.9075 24.2591C94.048 23.3996 92.8822 22.9167 91.6666 22.9167H18.3333Z" fill="#1AA05B"/>
<path d="M54.9997 64.1691C54.0651 64.1669 53.1535 63.8791 52.3872 63.3441L6.55384 31.2608C6.0254 30.9328 5.56923 30.5007 5.21312 29.9908C4.85701 29.4809 4.60841 28.9039 4.48244 28.2948C4.35647 27.6858 4.35578 27.0574 4.48041 26.4481C4.60504 25.8388 4.85238 25.2612 5.20737 24.7505C5.56236 24.2398 6.01757 23.8067 6.54529 23.4776C7.07301 23.1485 7.66219 22.9302 8.27697 22.836C8.89175 22.7419 9.51926 22.7738 10.1213 22.93C10.7233 23.0861 11.2873 23.3631 11.7788 23.7441L54.9997 53.9941L98.2205 23.7441C98.7121 23.3631 99.276 23.0861 99.878 22.93C100.48 22.7738 101.108 22.7419 101.722 22.836C102.337 22.9302 102.926 23.1485 103.454 23.4776C103.982 23.8067 104.437 24.2398 104.792 24.7505C105.147 25.2612 105.394 25.8388 105.519 26.4481C105.644 27.0574 105.643 27.6858 105.517 28.2948C105.391 28.9039 105.142 29.4809 104.786 29.9908C104.43 30.5007 103.974 30.9328 103.446 31.2608L57.6122 63.3441C56.8458 63.8791 55.9343 64.1669 54.9997 64.1691Z" fill="#1AA05B"/>
</svg>
