<svg width="40" height="40" viewBox="0 0 40 40" fill="none" xmlns="http://www.w3.org/2000/svg">
<circle cx="20" cy="20" r="20" fill="#EBEDF0"/>
<path d="M13 30C12.7348 30 12.4804 29.8946 12.2929 29.7071C12.1054 29.5196 12 29.2652 12 29V11C12 10.7348 12.1054 10.4804 12.2929 10.2929C12.4804 10.1054 12.7348 10 13 10H27C27.2652 10 27.5196 10.1054 27.7071 10.2929C27.8946 10.4804 28 10.7348 28 11V14H26V12H14V28H26V26H28V29C28 29.2652 27.8946 29.5196 27.7071 29.7071C27.5196 29.8946 27.2652 30 27 30H13ZM26 24V21H19V19H26V16L31 20L26 24Z" fill="#1AA05B"/>
</svg>
